<?xml version="1.0" encoding="UTF-8"?>
<svg version="1.1" xmlns="http://www.w3.org/2000/svg" width="512" height="512">
<path d="M0 0 C1.22517838 -0.0071553 2.45035675 -0.01431061 3.71266174 -0.02168274 C5.07797216 -0.02452321 6.44328285 -0.02723491 7.80859375 -0.02983093 C9.2409227 -0.03609494 10.67325003 -0.04274169 12.10557556 -0.04974365 C16.81907007 -0.07080504 21.53256497 -0.0811523 26.24609375 -0.09111023 C27.86980201 -0.0951579 29.4935101 -0.09927482 31.11721802 -0.10346031 C38.75037734 -0.12252153 46.38352696 -0.13674703 54.01670551 -0.14507228 C62.81721816 -0.15482954 71.61747827 -0.18110542 80.41790199 -0.22157317 C87.22483846 -0.25179494 94.03170284 -0.26654714 100.83870506 -0.26985329 C104.90129162 -0.27219815 108.9636087 -0.28108352 113.02612305 -0.30631447 C116.85440974 -0.32970465 120.6822517 -0.33378493 124.51059151 -0.32355309 C125.90933276 -0.32306015 127.30809669 -0.3293085 128.70676994 -0.34310913 C141.43439344 -0.46157592 149.78577077 1.91142217 159.046875 10.77998352 C167.19440075 19.54978922 168.54692976 28.07664896 168.51351929 39.70339966 C168.5180504 40.86205384 168.52258151 42.02070803 168.52724993 43.21447295 C168.53769592 46.41744169 168.53922393 49.62026869 168.53686118 52.82324898 C168.53645206 56.28280682 168.54750116 59.7423315 168.55697632 63.20187378 C168.57356651 69.97479948 168.57908496 76.74769036 168.58020107 83.52063469 C168.58115245 89.02763363 168.58526721 94.53462112 168.59160233 100.04161644 C168.60920902 115.66546665 168.61844204 131.28928943 168.61694138 146.91314963 C168.61686147 147.75487132 168.61678155 148.59659301 168.61669922 149.46382141 C168.61661746 150.30657439 168.6165357 151.14932737 168.61645146 152.01761832 C168.61563863 165.67423545 168.63477696 179.33074227 168.66297595 192.98732749 C168.69172239 207.02009924 168.70551529 221.05281722 168.7037884 235.08561915 C168.70312513 242.95985524 168.70858998 250.83397567 168.7301445 258.7081852 C168.74837946 265.41249824 168.75268469 272.11664319 168.73912565 278.82097033 C168.73260769 282.2390003 168.7324358 285.65670798 168.74983215 289.07470703 C168.76527975 292.78675539 168.75597817 296.49796109 168.74057007 300.20999146 C168.75085719 301.28111752 168.76114432 302.35224358 168.77174318 303.45582801 C168.67803409 313.69396445 165.46833207 322.71721346 158.24609375 330.14717102 C150.58212276 336.31470971 142.28624801 340.26002611 132.34115601 340.2813921 C130.89089791 340.28807886 130.89089791 340.28807886 129.41134167 340.29490072 C128.35698075 340.29471635 127.30261984 340.29453199 126.21630859 340.29434204 C125.09006482 340.29801873 123.96382105 340.30169542 122.80344868 340.30548352 C119.02130493 340.31651575 115.23918867 340.32036345 111.45703125 340.32417297 C108.74835475 340.32990711 106.03968236 340.33707222 103.33100891 340.34408569 C95.19651527 340.363826 87.06202043 340.37391366 78.92750883 340.38281348 C75.09283588 340.38720076 71.2581643 340.39256647 67.42349243 340.39780235 C54.66901435 340.41481293 41.91453712 340.42930554 29.16004944 340.43655109 C25.85197956 340.43846086 22.54390969 340.44038121 19.23583984 340.44233704 C18.4136771 340.44282078 17.59151435 340.44330452 16.74443758 340.44380292 C3.43568345 340.45209742 -9.87298063 340.47742529 -23.18169546 340.50991771 C-36.85845841 340.54303528 -50.53517567 340.56100413 -64.21197891 340.56419533 C-71.88569983 340.56635619 -79.55928946 340.57504235 -87.23297119 340.60065651 C-93.77035331 340.6224279 -100.30757224 340.63038249 -106.8449865 340.62068973 C-110.17637316 340.6161633 -113.50715228 340.62014209 -116.83853722 340.63745117 C-148.63416883 340.7933596 -148.63416883 340.7933596 -159.75390625 331.18623352 C-170.42536332 320.30634955 -172.21284173 308.84317019 -172.14208984 294.03437805 C-172.14616472 292.65171903 -172.15151169 291.26906328 -172.15802002 289.88641357 C-172.17158311 286.16569076 -172.16644314 282.44522018 -172.15688276 278.7244935 C-172.14923774 274.81776198 -172.15634428 270.9110507 -172.16104126 267.00431824 C-172.16648092 260.45293837 -172.15935035 253.90166038 -172.14501953 247.35029602 C-172.12865545 239.78212335 -172.13401583 232.21419271 -172.15049875 224.64602578 C-172.16411599 218.1319583 -172.16603336 211.6179636 -172.15818274 205.10388649 C-172.15351278 201.21996011 -172.15286353 197.33614755 -172.16279221 193.45222855 C-172.17146458 189.80606554 -172.16543539 186.16021506 -172.14810944 182.51408577 C-172.14226033 180.54110263 -172.15115492 178.56809301 -172.16049194 176.59512329 C-172.15203247 175.41775101 -172.143573 174.24037872 -172.13485718 173.02732849 C-172.1337261 172.00644197 -172.13259502 170.98555546 -172.13142967 169.93373299 C-171.69034529 166.67801719 -170.6797695 164.78723834 -168.75390625 162.14717102 C-165.8985918 160.7195138 -163.44829747 160.99615349 -160.25634766 160.97016907 C-159.25605278 160.96031227 -159.25605278 160.96031227 -158.23554993 160.95025635 C-156.02552176 160.93052211 -153.81556151 160.91886126 -151.60546875 160.90888977 C-150.8510487 160.90481424 -150.09662865 160.90073872 -149.31934738 160.89653969 C-145.32715885 160.87567951 -141.33500469 160.86137698 -137.34277344 160.852005 C-133.21769131 160.84093382 -129.09314762 160.80652629 -124.968256 160.76683331 C-121.79752594 160.74070106 -118.62692493 160.73231629 -115.45609665 160.72872353 C-113.93543227 160.72384959 -112.41477396 160.71221257 -110.89421463 160.69368553 C-108.76579212 160.66936186 -106.63877256 160.67024547 -104.51025391 160.67720032 C-103.29939117 160.67133408 -102.08852844 160.66546783 -100.8409729 160.65942383 C-97.12960224 161.24580917 -95.98137035 162.17217148 -93.75390625 165.14717102 C-92.72971552 168.90253703 -92.24922264 171.08467921 -93.94140625 174.64717102 C-94.53953125 175.47217102 -95.13765625 176.29717102 -95.75390625 177.14717102 C-99.3176264 182.70238184 -101.71752499 187.54226732 -100.3125 194.25654602 C-98.38022057 200.13067547 -95.17053469 203.55439318 -90.00390625 206.95967102 C-84.21243492 209.07578554 -79.08237105 209.04380015 -73.44140625 206.45967102 C-69.19991556 204.0648731 -66.8575024 201.13364408 -64.50390625 196.89717102 C-63.0816798 191.68234069 -63.05810844 186.95624533 -65.00390625 181.89717102 C-66.67477547 179.09275218 -66.67477547 179.09275218 -68.94140625 176.77217102 C-71.07335294 173.68452409 -71.25770122 171.85997652 -71.3828125 168.20967102 C-70.36660183 164.87700499 -68.72454777 162.85970457 -65.75390625 161.14717102 C-61.58045037 160.43709916 -57.45696509 160.56632674 -53.234375 160.65888977 C-52.02066727 160.66596451 -50.80695953 160.67303925 -49.55647278 160.68032837 C-45.68415413 160.70829213 -41.81328708 160.77104011 -37.94140625 160.83467102 C-35.31447402 160.85975106 -32.68751911 160.88256473 -30.06054688 160.9030304 C-23.62399237 160.95387206 -17.19057186 161.05173446 -10.75390625 161.14717102 C-10.75390625 149.26717102 -10.75390625 137.38717102 -10.75390625 125.14717102 C-14.05390625 125.80717102 -17.35390625 126.46717102 -20.75390625 127.14717102 C-30.9511411 126.95195369 -41.43854392 123.46253335 -48.75390625 116.14717102 C-57.71332041 105.08319649 -60.03661144 95.17235414 -58.75390625 81.14717102 C-56.46259862 71.99369081 -51.0592456 64.07153885 -43.75390625 58.14717102 C-36.26797545 53.66022637 -30.38660661 51.97521224 -21.69140625 52.02217102 C-20.97146484 52.01830383 -20.25152344 52.01443665 -19.50976562 52.01045227 C-16.32681986 52.01636303 -13.79442763 52.13366389 -10.75390625 53.14717102 C-10.763899 52.28059624 -10.763899 52.28059624 -10.77409363 51.39651489 C-10.84051623 45.3781542 -10.8857356 39.35989783 -10.91870117 33.34126282 C-10.93377807 31.09577708 -10.95424278 28.85032073 -10.98022461 26.60493469 C-11.01665543 23.37545003 -11.0336438 20.14635508 -11.046875 16.91670227 C-11.06235886 15.91444107 -11.07784271 14.91217987 -11.09379578 13.87954712 C-11.09591628 5.07724481 -11.09591628 5.07724481 -7.75390625 1.14717102 C-5.07180982 -0.19387719 -3.00451729 0.01200878 0 0 Z " fill="#010101" transform="translate(297.75390625,129.8528289794922)"/>
<path d="M0 0 C1.38251152 -0.00407361 2.76501978 -0.00941988 4.14752197 -0.01593018 C7.87243586 -0.02950958 11.59709819 -0.02434606 15.322016 -0.01479292 C19.23142271 -0.00715497 23.14080904 -0.01425264 27.05021667 -0.01895142 C33.60757284 -0.02439376 40.16482728 -0.01725408 46.72216797 -0.00292969 C54.2977042 0.01342804 61.87299858 0.00807968 69.44852906 -0.0084089 C75.96682262 -0.02202663 82.48504344 -0.02394307 89.00334662 -0.0160929 C92.89064132 -0.01142232 96.77782229 -0.01077523 100.66510963 -0.02070236 C104.31536314 -0.0293752 107.96530447 -0.02334469 111.61552429 -0.00601959 C113.59090243 -0.00017037 115.56630702 -0.00906517 117.54167175 -0.0184021 C118.7204892 -0.00994263 119.89930664 -0.00148315 121.11384583 0.00723267 C122.13603116 0.00836374 123.1582165 0.00949482 124.21137714 0.01066017 C127.46524203 0.45105234 129.34895158 1.48518326 132.00073242 3.38818359 C134.37311135 6.6686456 134.25922858 9.76321843 134.27539062 13.72973633 C134.28492264 15.01464462 134.29445465 16.29955292 134.30427551 17.62339783 C134.30401408 19.02285794 134.30307698 20.42231808 134.30151367 21.82177734 C134.30540237 23.26139957 134.3097374 24.70102065 134.3144989 26.14064026 C134.32195422 29.15589113 134.32167487 32.1710249 134.31640625 35.1862793 C134.31061243 39.04435023 134.32754332 42.90194096 134.35075092 46.75993252 C134.365505 49.73255705 134.36635771 52.70506637 134.3632412 55.67772102 C134.36375357 57.09984348 134.36897557 58.52197253 134.37905312 59.94405937 C134.39143122 61.93508089 134.38267511 63.92619962 134.37304688 65.91723633 C134.3736763 67.04878647 134.37430573 68.18033661 134.37495422 69.34617615 C133.87477947 73.41204117 132.49162252 76.21676994 129.25073242 78.76318359 C125.73850897 79.73880122 123.54242082 79.31715104 120.00073242 78.38818359 C118.49216249 77.43311774 117.01410514 76.42880955 115.56323242 75.38818359 C110.52117655 71.84765366 106.7996439 70.75935354 100.71166992 71.76708984 C94.74229667 73.35426434 91.29660076 76.2105526 88.00073242 81.38818359 C85.47942306 86.43080232 85.71831742 91.01514554 87.00073242 96.38818359 C88.99955568 101.67004816 92.07290615 104.66215204 97.00073242 107.38818359 C102.6270705 109.26362962 107.94660245 109.20874924 113.31323242 106.57568359 C115.46516378 105.3876822 117.14322669 104.26350111 119.00073242 102.63818359 C122.1772102 100.65288498 125.3679206 100.70190292 129.00073242 101.38818359 C131.96931399 103.5955904 132.82939033 104.87415732 134.00073242 108.38818359 C134.11491762 110.45675166 134.17002619 112.52875878 134.19360352 114.6003418 C134.20966644 115.88209793 134.22572937 117.16385406 134.24227905 118.48445129 C134.25376631 119.88594905 134.26437488 121.28745424 134.27416992 122.68896484 C134.2794936 123.39584127 134.28481728 124.1027177 134.29030228 124.83101463 C134.31700476 128.57263478 134.33638879 132.3142219 134.35083008 136.0559082 C134.3641679 139.14735513 134.39201993 142.23814175 134.43286133 145.3293457 C134.48224654 149.06762769 134.50695777 152.805311 134.51405716 156.54390526 C134.52075805 157.96525804 134.53595016 159.38659807 134.55994797 160.80776405 C134.75851379 173.2784407 134.75851379 173.2784407 132.16845703 177.27026367 C127.43935075 180.43211315 123.36107736 180.13894658 117.79370117 179.97412109 C116.71316971 179.96563141 115.63263824 179.95714172 114.5193634 179.94839478 C111.07463074 179.91485871 107.63225522 179.8395733 104.18823242 179.76318359 C101.85037565 179.73308452 99.51248211 179.70570862 97.17456055 179.68115234 C91.44914953 179.61506688 85.72510937 179.51471505 80.00073242 179.38818359 C80.14587784 180.06727783 80.29102325 180.74637207 80.44056702 181.44604492 C80.62679123 182.340896 80.81301544 183.23574707 81.00488281 184.15771484 C81.19127823 185.04305908 81.37767365 185.92840332 81.56971741 186.84057617 C83.11145872 195.95337149 80.14304953 205.86443719 75.00073242 213.38818359 C68.65919536 221.39631614 60.04501169 226.44981391 50.00073242 228.38818359 C39.6993768 229.46990914 29.4908992 227.32791533 21.06323242 221.13818359 C14.02619431 215.06777159 7.70245295 207.00194693 6.8215332 197.44384766 C6.53974589 191.3847195 6.3959792 185.27254796 8.00073242 179.38818359 C7.39573914 179.39706604 6.79074585 179.40594849 6.16741943 179.4151001 C-0.12649085 179.50355952 -6.42022471 179.56391201 -12.71459961 179.60791016 C-15.06395642 179.62803174 -17.41326312 179.6553321 -19.76245117 179.68994141 C-23.13839073 179.73843399 -26.51366844 179.76114716 -29.88989258 179.77880859 C-30.94106262 179.79945374 -31.99223267 179.82009888 -33.07525635 179.84136963 C-34.05597107 179.84167175 -35.03668579 179.84197388 -36.04711914 179.84228516 C-36.90871643 179.8511676 -37.77031372 179.86005005 -38.65802002 179.86920166 C-41.88540762 179.20612281 -42.94818849 177.93877672 -44.99926758 175.38818359 C-45.50263214 172.62817192 -45.50263214 172.62817192 -45.50720215 169.39376831 C-45.51848145 168.16584061 -45.52976074 166.9379129 -45.54138184 165.67277527 C-45.5336046 164.31472542 -45.52541193 162.95667791 -45.5168457 161.59863281 C-45.52226705 160.1660033 -45.52938979 158.73337937 -45.53808594 157.30076599 C-45.55633089 153.40982078 -45.54924457 149.5192996 -45.5365696 145.62834692 C-45.52643615 141.55040698 -45.53583732 137.47250315 -45.54211426 133.39456177 C-45.54939464 126.5398305 -45.53979799 119.68527151 -45.52075195 112.83056641 C-45.49903442 104.92346245 -45.50599549 97.01677189 -45.52805758 89.10967815 C-45.54626285 82.31116019 -45.54874339 75.5127661 -45.5383029 68.71423161 C-45.53208932 64.6584269 -45.53117204 60.60281579 -45.54444885 56.54702377 C-45.55607974 52.72685437 -45.54785117 48.90721207 -45.52487183 45.08709908 C-45.51962081 43.69160521 -45.52103608 42.29606634 -45.52992249 40.9005909 C-45.60328637 28.19993304 -43.22414442 19.81462556 -34.35473633 10.58349609 C-24.36519326 1.27317568 -13.25027747 -0.06312722 0 0 Z " fill="#7AD689" transform="translate(90.999267578125,41.61181640625)"/>
<path d="M0 0 C16.68130772 -0.09355264 33.36252999 -0.16403258 50.04403687 -0.20724869 C57.79002669 -0.22785044 65.53585326 -0.25592509 73.28173828 -0.30175781 C80.03517361 -0.34169902 86.78849066 -0.36745017 93.54204082 -0.37635398 C97.11613804 -0.38155649 100.68989698 -0.39373371 104.2638855 -0.42292023 C108.2594079 -0.45528274 112.25434686 -0.45595477 116.25 -0.45410156 C118.01622459 -0.47567322 118.01622459 -0.47567322 119.81813049 -0.49768066 C127.08417358 -0.46124083 133.08467019 0.26200476 138.51611328 5.44744492 C142.47595379 9.9716414 144.25205666 13.43465212 144.24050903 19.4163208 C144.24463303 21.06532883 144.24463303 21.06532883 144.24884033 22.74765015 C144.2380545 24.5494725 144.2380545 24.5494725 144.22705078 26.38769531 C144.22734283 27.65624359 144.22763489 28.92479187 144.22793579 30.23178101 C144.22850949 33.70669667 144.21675241 37.1814742 144.20278788 40.65635777 C144.19028342 44.28918825 144.18911024 47.92202192 144.18673706 51.55487061 C144.18052145 58.43254878 144.16410955 65.31016335 144.14403808 72.18781352 C144.12168159 80.01846176 144.11068628 87.84911304 144.10064721 95.67978525 C144.07974338 111.7865666 144.04306615 127.89326035 144 144 C131.79 144 119.58 144 107 144 C107.33 142.35 107.66 140.7 108 139 C108.9716577 126.98967368 106.80445593 117.34455848 98.984375 108.00390625 C91.17654248 100.11922498 82.51706931 96.7346045 71.5625 96.5625 C64.92053088 96.59540582 59.71177984 97.38463166 54 101 C52.96875 101.5775 51.9375 102.155 50.875 102.75 C43.56421279 108.47148565 37.95351798 115.80697422 36 125 C35.92181364 126.51395696 35.89210091 128.03093507 35.90234375 129.546875 C35.90484131 130.30838867 35.90733887 131.06990234 35.90991211 131.85449219 C35.91901611 132.81000977 35.92812012 133.76552734 35.9375 134.75 C35.958125 137.8025 35.97875 140.855 36 144 C24.12 144 12.24 144 0 144 C-0.02578125 140.07609375 -0.0515625 136.1521875 -0.078125 132.109375 C-0.11652621 128.31324048 -0.1616929 124.51724268 -0.20751953 120.72119141 C-0.23576253 118.0809582 -0.25696038 115.44063992 -0.27099609 112.80029297 C-0.29237856 109.0070428 -0.33900791 105.21481921 -0.390625 101.421875 C-0.39185364 100.23946228 -0.39308228 99.05704956 -0.39434814 97.83880615 C-0.41406677 96.73796692 -0.4337854 95.63712769 -0.45410156 94.50292969 C-0.46298401 93.53474304 -0.47186646 92.5665564 -0.48101807 91.56903076 C-1.15379302 88.23870376 -2.32781131 87.04670582 -5 85 C-10.20128064 84.24497539 -11.9270758 84.20056628 -16.1875 87.375 C-17.115625 88.24125 -18.04375 89.1075 -19 90 C-23.62570514 92.698328 -28.79444393 92.64457512 -34 92 C-40.34627897 89.92190473 -44.84614463 84.67552111 -48.14453125 79.046875 C-49.92300344 74.79153515 -49.67257677 70.2191006 -48.34765625 65.84765625 C-45.63260603 59.77666414 -41.31480413 55.91909713 -35.625 52.625 C-28.9493488 51.03555924 -24.48795991 51.36528357 -18.5 54.9375 C-14.36 57.64 -14.36 57.64 -13 59 C-7.12353969 59.46331437 -7.12353969 59.46331437 -2 57 C-0.99314613 53.97943839 -0.84627314 51.86445386 -0.79467773 48.70239258 C-0.77473251 47.62149857 -0.75478729 46.54060455 -0.73423767 45.42695618 C-0.71752518 44.26125595 -0.70081268 43.09555573 -0.68359375 41.89453125 C-0.66281265 40.70018967 -0.64203156 39.50584808 -0.62062073 38.27531433 C-0.55515724 34.45443557 -0.4962549 30.63348724 -0.4375 26.8125 C-0.39431176 24.22460214 -0.35069737 21.63671135 -0.30664062 19.04882812 C-0.19947908 12.69929261 -0.0977066 6.34968766 0 0 Z " fill="#8CB1F5" transform="translate(305,147)"/>
<path d="M0 0 C11.88 0 23.76 0 36 0 C35.9175 2.908125 35.835 5.81625 35.75 8.8125 C35.65501317 19.88269756 37.69817578 28.34428093 44.95703125 36.99609375 C52.03082167 43.93463005 61.72796055 48.02390708 71.625 48.3125 C82.09736109 47.87233071 92.30134588 43.7915823 99.46875 36.015625 C106.30040518 27.02293604 108.74918133 17.11576016 108 6 C107.505 3.03 107.505 3.03 107 0 C119.21 0 131.42 0 144 0 C144.01417969 3.99609375 144.02835938 7.9921875 144.04296875 12.109375 C144.07357275 15.97502127 144.11266613 19.84049476 144.15258789 23.70605469 C144.17858309 26.39493362 144.19228495 29.08346061 144.19555664 31.77246094 C144.20482187 35.63534691 144.24576398 39.49678958 144.29296875 43.359375 C144.28706978 45.16580475 144.28706978 45.16580475 144.28105164 47.00872803 C144.23227534 53.43243537 144.23227534 53.43243537 147.3371582 58.78222656 C151.14520789 60.5237276 152.99395044 60.22218461 157 59 C158.21235754 58.00881579 159.39827752 56.9848027 160.5625 55.9375 C165.27643103 52.13327496 169.76202487 52.20478997 175.65234375 52.48828125 C182.19684168 53.48866541 186.09720799 56.37082571 190 61.625 C192.76816786 66.59831852 192.86446757 71.45771259 192 77 C189.97764367 83.66586722 186.06259527 87.57099567 180.14453125 91.109375 C175.49197013 93.04158618 169.57296921 92.95661676 164.8671875 91.20703125 C162.36377923 89.79276814 160.16090615 88.14079288 158 86.25 C154.90496767 84.3156048 152.55744112 84.55531986 149 85 C146.34309156 87.04733304 145.15188054 88.24817079 144.48101807 91.56903076 C144.47213562 92.53721741 144.46325317 93.50540405 144.45410156 94.50292969 C144.43438293 95.60376892 144.41466431 96.70460815 144.39434814 97.83880615 C144.39311951 99.02121887 144.39189087 100.20363159 144.390625 101.421875 C144.37408875 102.63699768 144.35755249 103.85212036 144.34051514 105.10406494 C144.29192037 108.98609413 144.2706376 112.86773123 144.25 116.75 C144.2218501 119.38153026 144.19192407 122.01304217 144.16015625 124.64453125 C144.08615804 131.09628272 144.03458278 137.5479234 144 144 C127.05794848 144.1169354 110.11602336 144.2050379 93.17366028 144.25906086 C85.30655404 144.28481431 77.43969893 144.31990966 69.57275391 144.37719727 C62.71384254 144.42712038 55.8551131 144.45931181 48.99602509 144.47044247 C45.36595634 144.47694633 41.7364079 144.49217118 38.10650635 144.52865028 C34.04863662 144.56909742 29.99166455 144.56994376 25.93359375 144.56762695 C24.13931694 144.59459152 24.13931694 144.59459152 22.30879211 144.62210083 C15.31132223 144.57889778 10.31782013 143.78244422 5 139 C1.27414566 134.22326367 -0.12603576 130.69908622 -0.12025452 124.70393372 C-0.12162918 123.6059697 -0.12300385 122.50800568 -0.12442017 121.37677002 C-0.12082489 120.17195984 -0.11722961 118.96714966 -0.11352539 117.72583008 C-0.11367142 116.45742783 -0.11381744 115.18902557 -0.1139679 113.88218689 C-0.11425511 110.40312252 -0.10837057 106.92409254 -0.10139394 103.44503617 C-0.09514785 99.80952519 -0.0945556 96.17401344 -0.09336853 92.53849792 C-0.09025893 85.65372618 -0.08205052 78.76897028 -0.07201904 71.88420552 C-0.06084641 64.04631871 -0.05534455 56.20843114 -0.05032361 48.37053835 C-0.03986761 32.24701482 -0.02152672 16.12351313 0 0 Z " fill="#FC6063" transform="translate(144,308)"/>
<path d="M0 0 C4.2398611 3.66169822 7.51166782 7.33186618 8.5390625 12.9453125 C8.75527584 20.94520619 7.17930111 25.00066956 2.4921875 31.41015625 C0.07995728 35.59682807 0.87572074 38.42793101 2 43 C5.07218336 44.02406112 7.26012175 44.1546536 10.48120117 44.20532227 C11.60213669 44.22526749 12.7230722 44.24521271 13.87797546 44.26576233 C15.69214714 44.29083107 15.69214714 44.29083107 17.54296875 44.31640625 C18.78170242 44.33718735 20.0204361 44.35796844 21.29670715 44.37937927 C24.58625256 44.43371797 27.87582726 44.48395951 31.16546631 44.53222656 C34.52377814 44.58250646 37.88200046 44.63815861 41.24023438 44.69335938 C47.82675159 44.80053048 54.41333584 44.90230135 61 45 C61.11693799 61.81166723 61.20503915 78.62320707 61.25906086 95.43518829 C61.28481377 103.24176145 61.31990806 111.04808151 61.37719727 118.85449219 C61.42712207 125.66066585 61.4593122 132.46665618 61.47044247 139.27300787 C61.47694605 142.87513274 61.49216906 146.47673322 61.52865028 150.07868958 C61.56910083 154.10542806 61.56994366 158.13126199 61.56762695 162.15820312 C61.59459152 163.93845383 61.59459152 163.93845383 61.62210083 165.75466919 C61.57834366 172.78832179 60.70448539 177.61510846 56 183 C51.73683712 187.1735718 48.76886858 189.12597406 42.78622437 189.12025452 C41.1287191 189.12231651 41.1287191 189.12231651 39.43772888 189.12442017 C38.21997269 189.12082489 37.00221649 189.11722961 35.74755859 189.11352539 C34.4695488 189.11367142 33.191539 189.11381744 31.87480164 189.1139679 C28.36468746 189.11425549 24.85460727 189.10836491 21.34450102 189.10139394 C17.67828766 189.09515406 14.01207357 189.0945561 10.34585571 189.09336853 C3.40084359 189.09025709 -3.54415283 189.08204621 -10.48915803 189.07201904 C-18.39473502 189.06085211 -26.30031275 189.05534599 -34.20589566 189.05032361 C-50.47060775 189.03986345 -66.73529822 189.02152029 -83 189 C-83 177.12 -83 165.24 -83 153 C-79.90625 153.0825 -76.8125 153.165 -73.625 153.25 C-66.01289953 153.31729875 -59.64773131 153.08598514 -53 149 C-52.30003906 148.59910156 -51.60007812 148.19820312 -50.87890625 147.78515625 C-43.35655359 142.87927408 -38.22667323 134.62310719 -36 126 C-35.00543394 116.77176791 -34.68487699 106.93967132 -40 99 C-40.43570313 98.30777344 -40.87140625 97.61554688 -41.3203125 96.90234375 C-47.10971746 88.43968896 -54.99806459 83.2702188 -65 81 C-71.22392188 80.4949732 -76.87684103 80.77536821 -83 82 C-83 69.79 -83 57.58 -83 45 C-79.00390625 44.98582031 -75.0078125 44.97164063 -70.890625 44.95703125 C-67.02497873 44.92642725 -63.15950524 44.88733387 -59.29394531 44.84741211 C-56.60506638 44.82141691 -53.91653939 44.80771505 -51.22753906 44.80444336 C-47.36465309 44.79517813 -43.50321042 44.75423602 -39.640625 44.70703125 C-38.4363385 44.7109639 -37.232052 44.71489655 -35.99127197 44.71894836 C-29.56945677 44.76559303 -29.56945677 44.76559303 -24.21386719 41.6706543 C-22.50833775 37.91828373 -22.82716499 35.93244681 -24 32 C-25.64169528 29.97945196 -27.30911778 27.97956942 -29 26 C-31.02163187 20.70524986 -32.16765445 15.46979135 -30.3125 9.95703125 C-27.68269551 4.11667379 -24.27328884 0.85781259 -18.6875 -2.3125 C-11.92656648 -4.04204113 -6.14501216 -3.42702601 0 0 Z " fill="#FCA25B" transform="translate(388,263)"/>
<path d="M0 0 C1.38251152 -0.00407361 2.76501978 -0.00941988 4.14752197 -0.01593018 C7.87243586 -0.02950958 11.59709819 -0.02434606 15.322016 -0.01479292 C19.23142271 -0.00715497 23.14080904 -0.01425264 27.05021667 -0.01895142 C33.60757284 -0.02439376 40.16482728 -0.01725408 46.72216797 -0.00292969 C54.2977042 0.01342804 61.87299858 0.00807968 69.44852906 -0.0084089 C75.96682262 -0.02202663 82.48504344 -0.02394307 89.00334662 -0.0160929 C92.89064132 -0.01142232 96.77782229 -0.01077523 100.66510963 -0.02070236 C104.31536314 -0.0293752 107.96530447 -0.02334469 111.61552429 -0.00601959 C113.59090243 -0.00017037 115.56630702 -0.00906517 117.54167175 -0.0184021 C118.7204892 -0.00994263 119.89930664 -0.00148315 121.11384583 0.00723267 C122.13603116 0.00836374 123.1582165 0.00949482 124.21137714 0.01066017 C127.46524203 0.45105234 129.34895158 1.48518326 132.00073242 3.38818359 C134.37311135 6.6686456 134.25922858 9.76321843 134.27539062 13.72973633 C134.28492264 15.01464462 134.29445465 16.29955292 134.30427551 17.62339783 C134.30401408 19.02285794 134.30307698 20.42231808 134.30151367 21.82177734 C134.30540237 23.26139957 134.3097374 24.70102065 134.3144989 26.14064026 C134.32195422 29.15589113 134.32167487 32.1710249 134.31640625 35.1862793 C134.31061243 39.04435023 134.32754332 42.90194096 134.35075092 46.75993252 C134.365505 49.73255705 134.36635771 52.70506637 134.3632412 55.67772102 C134.36375357 57.09984348 134.36897557 58.52197253 134.37905312 59.94405937 C134.39143122 61.93508089 134.38267511 63.92619962 134.37304688 65.91723633 C134.3736763 67.04878647 134.37430573 68.18033661 134.37495422 69.34617615 C133.87477947 73.41204117 132.49162252 76.21676994 129.25073242 78.76318359 C125.73850897 79.73880122 123.54242082 79.31715104 120.00073242 78.38818359 C118.49216249 77.43311774 117.01410514 76.42880955 115.56323242 75.38818359 C110.52117655 71.84765366 106.7996439 70.75935354 100.71166992 71.76708984 C94.74229667 73.35426434 91.29660076 76.2105526 88.00073242 81.38818359 C85.47942306 86.43080232 85.71831742 91.01514554 87.00073242 96.38818359 C88.99955568 101.67004816 92.07290615 104.66215204 97.00073242 107.38818359 C102.6270705 109.26362962 107.94660245 109.20874924 113.31323242 106.57568359 C115.46516378 105.3876822 117.14322669 104.26350111 119.00073242 102.63818359 C122.1772102 100.65288498 125.3679206 100.70190292 129.00073242 101.38818359 C131.96931399 103.5955904 132.82939033 104.87415732 134.00073242 108.38818359 C134.11491762 110.45675166 134.17002619 112.52875878 134.19360352 114.6003418 C134.20966644 115.88209793 134.22572937 117.16385406 134.24227905 118.48445129 C134.25376631 119.88594905 134.26437488 121.28745424 134.27416992 122.68896484 C134.2794936 123.39584127 134.28481728 124.1027177 134.29030228 124.83101463 C134.31700476 128.57263478 134.33638879 132.3142219 134.35083008 136.0559082 C134.3641679 139.14735513 134.39201993 142.23814175 134.43286133 145.3293457 C134.48224654 149.06762769 134.50695777 152.805311 134.51405716 156.54390526 C134.52075805 157.96525804 134.53595016 159.38659807 134.55994797 160.80776405 C134.75851379 173.2784407 134.75851379 173.2784407 132.16845703 177.27026367 C127.43935075 180.43211315 123.36107736 180.13894658 117.79370117 179.97412109 C116.71316971 179.96563141 115.63263824 179.95714172 114.5193634 179.94839478 C111.07463074 179.91485871 107.63225522 179.8395733 104.18823242 179.76318359 C101.85037565 179.73308452 99.51248211 179.70570862 97.17456055 179.68115234 C91.44914953 179.61506688 85.72510937 179.51471505 80.00073242 179.38818359 C80.14587784 180.06727783 80.29102325 180.74637207 80.44056702 181.44604492 C80.62679123 182.340896 80.81301544 183.23574707 81.00488281 184.15771484 C81.19127823 185.04305908 81.37767365 185.92840332 81.56971741 186.84057617 C83.11145872 195.95337149 80.14304953 205.86443719 75.00073242 213.38818359 C68.65919536 221.39631614 60.04501169 226.44981391 50.00073242 228.38818359 C39.6993768 229.46990914 29.4908992 227.32791533 21.06323242 221.13818359 C14.02619431 215.06777159 7.70245295 207.00194693 6.8215332 197.44384766 C6.53974589 191.3847195 6.3959792 185.27254796 8.00073242 179.38818359 C7.39573914 179.39706604 6.79074585 179.40594849 6.16741943 179.4151001 C-0.12649085 179.50355952 -6.42022471 179.56391201 -12.71459961 179.60791016 C-15.06395642 179.62803174 -17.41326312 179.6553321 -19.76245117 179.68994141 C-23.13839073 179.73843399 -26.51366844 179.76114716 -29.88989258 179.77880859 C-30.94106262 179.79945374 -31.99223267 179.82009888 -33.07525635 179.84136963 C-34.05597107 179.84167175 -35.03668579 179.84197388 -36.04711914 179.84228516 C-36.90871643 179.8511676 -37.77031372 179.86005005 -38.65802002 179.86920166 C-41.88540762 179.20612281 -42.94818849 177.93877672 -44.99926758 175.38818359 C-45.50263214 172.62817192 -45.50263214 172.62817192 -45.50720215 169.39376831 C-45.51848145 168.16584061 -45.52976074 166.9379129 -45.54138184 165.67277527 C-45.5336046 164.31472542 -45.52541193 162.95667791 -45.5168457 161.59863281 C-45.52226705 160.1660033 -45.52938979 158.73337937 -45.53808594 157.30076599 C-45.55633089 153.40982078 -45.54924457 149.5192996 -45.5365696 145.62834692 C-45.52643615 141.55040698 -45.53583732 137.47250315 -45.54211426 133.39456177 C-45.54939464 126.5398305 -45.53979799 119.68527151 -45.52075195 112.83056641 C-45.49903442 104.92346245 -45.50599549 97.01677189 -45.52805758 89.10967815 C-45.54626285 82.31116019 -45.54874339 75.5127661 -45.5383029 68.71423161 C-45.53208932 64.6584269 -45.53117204 60.60281579 -45.54444885 56.54702377 C-45.55607974 52.72685437 -45.54785117 48.90721207 -45.52487183 45.08709908 C-45.51962081 43.69160521 -45.52103608 42.29606634 -45.52992249 40.9005909 C-45.60328637 28.19993304 -43.22414442 19.81462556 -34.35473633 10.58349609 C-24.36519326 1.27317568 -13.25027747 -0.06312722 0 0 Z M-24.31176758 25.95068359 C-24.80290039 26.52947266 -25.2940332 27.10826172 -25.80004883 27.70458984 C-28.10464783 30.94003665 -28.12321976 33.84976644 -28.11952209 37.68424988 C-28.12089676 38.7822139 -28.12227142 39.88017792 -28.12368774 41.01141357 C-28.12009247 42.21622375 -28.11649719 43.42103394 -28.11279297 44.66235352 C-28.112939 45.93075577 -28.11308502 47.19915802 -28.11323547 48.5059967 C-28.11352269 51.98506107 -28.10763815 55.46409105 -28.10066152 58.94314742 C-28.09441542 62.5786584 -28.09382318 66.21417015 -28.09263611 69.84968567 C-28.0895265 76.73445742 -28.0813181 83.61921331 -28.07128662 90.50397807 C-28.06011399 98.34186489 -28.05461213 106.17975245 -28.04959118 114.01764524 C-28.03913519 130.14116731 -28.0215429 146.26467343 -27.99926758 162.38818359 C-27.32132645 162.38960861 -26.64338531 162.39103363 -25.94490051 162.39250183 C-18.88798578 162.41219005 -11.83193704 162.46644575 -4.77539062 162.54077148 C-2.14199029 162.56396682 0.49150302 162.57835075 3.125 162.58374023 C6.91099085 162.59301787 10.69551617 162.63398736 14.48120117 162.68115234 C16.24707832 162.67525337 16.24707832 162.67525337 18.04862976 162.66923523 C27.15733044 162.83177973 27.15733044 162.83177973 30.27148438 165.7253418 C32.00073242 168.38818359 32.00073242 168.38818359 32.18823242 171.70068359 C30.87429973 175.78079037 29.08918172 178.32995126 26.37573242 181.59130859 C23.25353786 185.67144921 23.43712461 190.49035235 24.00073242 195.38818359 C26.07384206 202.03398078 29.93868325 205.96460804 35.86010742 209.49755859 C40.64251002 211.48731734 46.41213744 211.1551747 51.32104492 209.70068359 C56.97400986 207.121384 60.19119829 203.49024211 63.31323242 198.13818359 C64.58316278 193.05846217 65.15799347 187.94362248 62.94995117 183.06787109 C61.71515698 181.09365738 60.41155956 179.2393598 59.00073242 177.38818359 C57.04017533 174.44734795 56.68858698 173.70690407 56.62573242 170.38818359 C56.59737305 169.70755859 56.56901367 169.02693359 56.53979492 168.32568359 C57.00073242 166.38818359 57.00073242 166.38818359 58.68560791 164.79411316 C61.50118727 163.08426721 63.22376802 162.99342401 66.50366211 162.95581055 C67.60450134 162.93601639 68.70534058 162.91622223 69.83953857 162.89582825 C71.61315765 162.88624336 71.61315765 162.88624336 73.42260742 162.87646484 C74.6377301 162.85851364 75.85285278 162.84056244 77.10479736 162.82206726 C80.98674039 162.76787501 84.86855983 162.73403889 88.75073242 162.70068359 C91.38226007 162.66751852 94.01377139 162.63302962 96.64526367 162.59716797 C103.09710528 162.50965087 109.54837947 162.44965476 116.00073242 162.38818359 C116.00073242 150.17818359 116.00073242 137.96818359 116.00073242 125.38818359 C113.52573242 125.88318359 113.52573242 125.88318359 111.00073242 126.38818359 C100.38310389 127.32820586 90.87574559 125.50303814 82.12573242 119.20068359 C75.94258489 113.95844982 70.49479086 106.47585528 69.00073242 98.38818359 C68.25890143 89.09240016 67.84954023 80.52635181 73.00073242 72.38818359 C73.86698242 70.84130859 73.86698242 70.84130859 74.75073242 69.26318359 C80.27838416 62.20007304 87.18012101 56.57608944 96.00073242 54.38818359 C102.6847188 53.82574247 109.29488958 54.16315531 116.00073242 54.38818359 C116.00073242 42.50818359 116.00073242 30.62818359 116.00073242 18.38818359 C99.02406716 18.29785631 82.04760727 18.22418606 65.07076836 18.18093491 C57.18796047 18.16031802 49.3053126 18.1322143 41.42260742 18.08642578 C34.55126402 18.04653105 27.68003652 18.02074442 20.80858052 18.01182961 C17.17083393 18.00661926 13.53341888 17.99439177 9.89577866 17.96526337 C5.83279524 17.93299354 1.77038657 17.93222586 -2.29272461 17.93408203 C-3.4960997 17.91970093 -4.69947479 17.90531982 -5.9393158 17.89050293 C-14.43009303 17.93254506 -18.77822561 19.28358586 -24.31176758 25.95068359 Z " fill="#000100" transform="translate(90.999267578125,41.61181640625)"/>
</svg>
